<svg width="40" height="40" viewBox="0 0 40 40" fill="none" xmlns="http://www.w3.org/2000/svg">
<rect width="40" height="40" rx="4" fill="#70C05B"/>
<path fill-rule="evenodd" clip-rule="evenodd" d="M10.5 20C10.5 19.7239 10.7239 19.5 11 19.5H29C29.2761 19.5 29.5 19.7239 29.5 20C29.5 20.2761 29.2761 20.5 29 20.5H11C10.7239 20.5 10.5 20.2761 10.5 20Z" fill="white"/>
<path fill-rule="evenodd" clip-rule="evenodd" d="M10.5 14C10.5 13.7239 10.7239 13.5 11 13.5H29C29.2761 13.5 29.5 13.7239 29.5 14C29.5 14.2761 29.2761 14.5 29 14.5H11C10.7239 14.5 10.5 14.2761 10.5 14Z" fill="white"/>
<path fill-rule="evenodd" clip-rule="evenodd" d="M10.5 26C10.5 25.7239 10.7239 25.5 11 25.5H29C29.2761 25.5 29.5 25.7239 29.5 26C29.5 26.2761 29.2761 26.5 29 26.5H11C10.7239 26.5 10.5 26.2761 10.5 26Z" fill="white"/>
</svg>
