<svg width="140" height="40" viewBox="0 0 140 40" fill="none" xmlns="http://www.w3.org/2000/svg">
<rect width="140" height="40" rx="4" fill="#70C05B"/>
<path fill-rule="evenodd" clip-rule="evenodd" d="M10.5 20C10.5 19.7239 10.7239 19.5 11 19.5H29C29.2761 19.5 29.5 19.7239 29.5 20C29.5 20.2761 29.2761 20.5 29 20.5H11C10.7239 20.5 10.5 20.2761 10.5 20Z" fill="white"/>
<path fill-rule="evenodd" clip-rule="evenodd" d="M10.5 14C10.5 13.7239 10.7239 13.5 11 13.5H29C29.2761 13.5 29.5 13.7239 29.5 14C29.5 14.2761 29.2761 14.5 29 14.5H11C10.7239 14.5 10.5 14.2761 10.5 14Z" fill="white"/>
<path fill-rule="evenodd" clip-rule="evenodd" d="M10.5 26C10.5 25.7239 10.7239 25.5 11 25.5H29C29.2761 25.5 29.5 25.7239 29.5 26C29.5 26.2761 29.2761 26.5 29 26.5H11C10.7239 26.5 10.5 26.2761 10.5 26Z" fill="white"/>
<path d="M57.0491 25C56.9317 25 56.8411 24.968 56.7771 24.904C56.7131 24.8293 56.6811 24.7387 56.6811 24.632V14.184C56.6811 14.0667 56.7131 13.976 56.7771 13.912C56.8411 13.8373 56.9317 13.8 57.0491 13.8H57.8651C57.9824 13.8 58.0731 13.8373 58.1371 13.912C58.2117 13.976 58.2491 14.0667 58.2491 14.184V18.6H60.0571L62.9051 14.056C62.9584 13.9707 63.0277 13.9067 63.1131 13.864C63.1984 13.8213 63.3104 13.8 63.4491 13.8H64.3131C64.4304 13.8 64.5157 13.832 64.5691 13.896C64.6224 13.96 64.6491 14.0347 64.6491 14.12C64.6491 14.184 64.6224 14.2533 64.5691 14.328L61.4971 19.224L64.8731 24.44C64.9051 24.4827 64.9211 24.5413 64.9211 24.616C64.9211 24.7227 64.8837 24.8133 64.8091 24.888C64.7451 24.9627 64.6597 25 64.5531 25H63.6411C63.5237 25 63.4331 24.9787 63.3691 24.936C63.3157 24.8827 63.2677 24.824 63.2251 24.76L60.1211 20.04H58.2491V24.632C58.2491 24.7387 58.2117 24.8293 58.1371 24.904C58.0731 24.968 57.9824 25 57.8651 25H57.0491ZM69.0274 25.16C68.4941 25.16 68.0088 25.0533 67.5714 24.84C67.1341 24.6267 66.7821 24.3387 66.5154 23.976C66.2488 23.6133 66.1154 23.2027 66.1154 22.744C66.1154 22.008 66.4141 21.4213 67.0114 20.984C67.6088 20.5467 68.3874 20.2587 69.3474 20.12L71.7314 19.784V19.32C71.7314 18.808 71.5821 18.408 71.2834 18.12C70.9954 17.832 70.5208 17.688 69.8594 17.688C69.3794 17.688 68.9901 17.784 68.6914 17.976C68.4034 18.168 68.2008 18.4133 68.0834 18.712C68.0194 18.872 67.9074 18.952 67.7474 18.952H67.0274C66.9101 18.952 66.8194 18.92 66.7554 18.856C66.7021 18.7813 66.6754 18.696 66.6754 18.6C66.6754 18.44 66.7341 18.2427 66.8514 18.008C66.9794 17.7733 67.1714 17.544 67.4274 17.32C67.6834 17.096 68.0088 16.9093 68.4034 16.76C68.8088 16.6 69.2994 16.52 69.8754 16.52C70.5154 16.52 71.0541 16.6053 71.4914 16.776C71.9288 16.936 72.2701 17.1547 72.5154 17.432C72.7714 17.7093 72.9528 18.024 73.0594 18.376C73.1768 18.728 73.2354 19.0853 73.2354 19.448V24.632C73.2354 24.7387 73.1981 24.8293 73.1234 24.904C73.0594 24.968 72.9741 25 72.8674 25H72.1314C72.0141 25 71.9234 24.968 71.8594 24.904C71.7954 24.8293 71.7634 24.7387 71.7634 24.632V23.944C71.6248 24.136 71.4381 24.328 71.2034 24.52C70.9688 24.7013 70.6754 24.856 70.3234 24.984C69.9714 25.1013 69.5394 25.16 69.0274 25.16ZM69.3634 23.96C69.8008 23.96 70.2008 23.8693 70.5634 23.688C70.9261 23.496 71.2088 23.2027 71.4114 22.808C71.6248 22.4133 71.7314 21.9173 71.7314 21.32V20.872L69.8754 21.144C69.1181 21.2507 68.5474 21.432 68.1634 21.688C67.7794 21.9333 67.5874 22.248 67.5874 22.632C67.5874 22.9307 67.6728 23.1813 67.8434 23.384C68.0248 23.576 68.2488 23.72 68.5154 23.816C68.7928 23.912 69.0754 23.96 69.3634 23.96ZM78.0796 25C77.9729 25 77.8822 24.968 77.8076 24.904C77.7436 24.8293 77.7116 24.7387 77.7116 24.632V17.96H74.9276C74.8209 17.96 74.7302 17.928 74.6556 17.864C74.5916 17.7893 74.5596 17.6987 74.5596 17.592V17.048C74.5596 16.9413 74.5916 16.856 74.6556 16.792C74.7302 16.7173 74.8209 16.68 74.9276 16.68H81.9676C82.0742 16.68 82.1596 16.7173 82.2236 16.792C82.2982 16.856 82.3356 16.9413 82.3356 17.048V17.592C82.3356 17.6987 82.2982 17.7893 82.2236 17.864C82.1596 17.928 82.0742 17.96 81.9676 17.96H79.1836V24.632C79.1836 24.7387 79.1516 24.8293 79.0876 24.904C79.0236 24.968 78.9329 25 78.8156 25H78.0796ZM86.0431 25.16C85.5097 25.16 85.0244 25.0533 84.5871 24.84C84.1497 24.6267 83.7977 24.3387 83.5311 23.976C83.2644 23.6133 83.1311 23.2027 83.1311 22.744C83.1311 22.008 83.4297 21.4213 84.0271 20.984C84.6244 20.5467 85.4031 20.2587 86.3631 20.12L88.7471 19.784V19.32C88.7471 18.808 88.5977 18.408 88.2991 18.12C88.0111 17.832 87.5364 17.688 86.8751 17.688C86.3951 17.688 86.0057 17.784 85.7071 17.976C85.4191 18.168 85.2164 18.4133 85.0991 18.712C85.0351 18.872 84.9231 18.952 84.7631 18.952H84.0431C83.9257 18.952 83.8351 18.92 83.7711 18.856C83.7177 18.7813 83.6911 18.696 83.6911 18.6C83.6911 18.44 83.7497 18.2427 83.8671 18.008C83.9951 17.7733 84.1871 17.544 84.4431 17.32C84.6991 17.096 85.0244 16.9093 85.4191 16.76C85.8244 16.6 86.3151 16.52 86.8911 16.52C87.5311 16.52 88.0697 16.6053 88.5071 16.776C88.9444 16.936 89.2857 17.1547 89.5311 17.432C89.7871 17.7093 89.9684 18.024 90.0751 18.376C90.1924 18.728 90.2511 19.0853 90.2511 19.448V24.632C90.2511 24.7387 90.2137 24.8293 90.1391 24.904C90.0751 24.968 89.9897 25 89.8831 25H89.1471C89.0297 25 88.9391 24.968 88.8751 24.904C88.8111 24.8293 88.7791 24.7387 88.7791 24.632V23.944C88.6404 24.136 88.4537 24.328 88.2191 24.52C87.9844 24.7013 87.6911 24.856 87.3391 24.984C86.9871 25.1013 86.5551 25.16 86.0431 25.16ZM86.3791 23.96C86.8164 23.96 87.2164 23.8693 87.5791 23.688C87.9417 23.496 88.2244 23.2027 88.4271 22.808C88.6404 22.4133 88.7471 21.9173 88.7471 21.32V20.872L86.8911 21.144C86.1337 21.2507 85.5631 21.432 85.1791 21.688C84.7951 21.9333 84.6031 22.248 84.6031 22.632C84.6031 22.9307 84.6884 23.1813 84.8591 23.384C85.0404 23.576 85.2644 23.72 85.5311 23.816C85.8084 23.912 86.0911 23.96 86.3791 23.96ZM92.1512 25C92.0445 25 91.9539 24.9627 91.8792 24.888C91.8045 24.8133 91.7672 24.7227 91.7672 24.616V24.024C91.7672 23.8 91.8792 23.6827 92.1032 23.672C92.4339 23.6613 92.7112 23.5067 92.9352 23.208C93.1592 22.8987 93.3299 22.4133 93.4472 21.752C93.5645 21.08 93.6232 20.1947 93.6232 19.096V17.048C93.6232 16.9413 93.6552 16.856 93.7192 16.792C93.7939 16.7173 93.8845 16.68 93.9912 16.68H99.0792C99.1859 16.68 99.2712 16.7173 99.3352 16.792C99.4099 16.856 99.4472 16.9413 99.4472 17.048V24.632C99.4472 24.7387 99.4099 24.8293 99.3352 24.904C99.2712 24.968 99.1859 25 99.0792 25H98.3112C98.2045 25 98.1192 24.968 98.0552 24.904C97.9912 24.8293 97.9592 24.7387 97.9592 24.632V17.96H95.0792V19.272C95.0792 20.296 95.0205 21.176 94.9032 21.912C94.7859 22.6373 94.6045 23.2293 94.3592 23.688C94.1245 24.136 93.8205 24.4667 93.4472 24.68C93.0845 24.8933 92.6525 25 92.1512 25ZM105.24 25.16C104.43 25.16 103.752 25.0053 103.208 24.696C102.664 24.3867 102.248 23.96 101.96 23.416C101.672 22.8613 101.512 22.232 101.48 21.528C101.47 21.3467 101.464 21.1173 101.464 20.84C101.464 20.552 101.47 20.3227 101.48 20.152C101.512 19.4373 101.672 18.808 101.96 18.264C102.259 17.72 102.68 17.2933 103.224 16.984C103.768 16.6747 104.44 16.52 105.24 16.52C106.04 16.52 106.712 16.6747 107.256 16.984C107.8 17.2933 108.216 17.72 108.504 18.264C108.803 18.808 108.968 19.4373 109 20.152C109.011 20.3227 109.016 20.552 109.016 20.84C109.016 21.1173 109.011 21.3467 109 21.528C108.968 22.232 108.808 22.8613 108.52 23.416C108.232 23.96 107.816 24.3867 107.272 24.696C106.728 25.0053 106.051 25.16 105.24 25.16ZM105.24 23.928C105.902 23.928 106.43 23.72 106.824 23.304C107.219 22.8773 107.432 22.2587 107.464 21.448C107.475 21.288 107.48 21.0853 107.48 20.84C107.48 20.5947 107.475 20.392 107.464 20.232C107.432 19.4213 107.219 18.808 106.824 18.392C106.43 17.9653 105.902 17.752 105.24 17.752C104.579 17.752 104.046 17.9653 103.64 18.392C103.246 18.808 103.038 19.4213 103.016 20.232C103.006 20.392 103 20.5947 103 20.84C103 21.0853 103.006 21.288 103.016 21.448C103.038 22.2587 103.246 22.8773 103.64 23.304C104.046 23.72 104.579 23.928 105.24 23.928ZM111.388 25C111.281 25 111.191 24.968 111.116 24.904C111.052 24.8293 111.02 24.7387 111.02 24.632V17.048C111.02 16.9413 111.052 16.856 111.116 16.792C111.191 16.7173 111.281 16.68 111.388 16.68H116.172C116.279 16.68 116.364 16.7173 116.428 16.792C116.492 16.856 116.524 16.9413 116.524 17.048V17.592C116.524 17.6987 116.492 17.7893 116.428 17.864C116.364 17.928 116.279 17.96 116.172 17.96H112.508V24.632C112.508 24.7387 112.476 24.8293 112.412 24.904C112.348 24.968 112.263 25 112.156 25H111.388Z" fill="white"/>
</svg>
